<mxfile host="app.diagrams.net" modified="2023-10-21T11:10:23.712Z" agent="Mozilla/5.0 (Windows NT 10.0; Win64; x64) AppleWebKit/537.36 (KHTML, like Gecko) Chrome/118.0.0.0 Safari/537.36" version="22.0.6" etag="t1wP4OqfX-qJSf4vZuyD" type="device">
  <diagram id="_EyuJcv3OJldmLG7PztH" name="Page-1">
    <mxGraphModel dx="500" dy="254" grid="1" gridSize="10" guides="1" tooltips="1" connect="1" arrows="1" fold="1" page="1" pageScale="1" pageWidth="850" pageHeight="1100" math="0" shadow="0">
      <root>
        <mxCell id="0" />
        <mxCell id="1" parent="0" />
        <mxCell id="k7VXEWRvtEJYzQEgH_qj-1" value="" style="endArrow=none;dashed=1;html=1;rounded=0;" edge="1" parent="1">
          <mxGeometry width="50" height="50" relative="1" as="geometry">
            <mxPoint x="345" y="460" as="sourcePoint" />
            <mxPoint x="345" y="140" as="targetPoint" />
          </mxGeometry>
        </mxCell>
        <mxCell id="k7VXEWRvtEJYzQEgH_qj-2" value="" style="rounded=0;whiteSpace=wrap;html=1;imageHeight=29;" vertex="1" parent="1">
          <mxGeometry x="210" y="224" width="440" height="136" as="geometry" />
        </mxCell>
        <mxCell id="k7VXEWRvtEJYzQEgH_qj-3" value=":System" style="shape=umlLifeline;perimeter=lifelinePerimeter;whiteSpace=wrap;html=1;container=0;dropTarget=0;collapsible=0;recursiveResize=0;outlineConnect=0;portConstraint=eastwest;newEdgeStyle={&quot;edgeStyle&quot;:&quot;elbowEdgeStyle&quot;,&quot;elbow&quot;:&quot;vertical&quot;,&quot;curved&quot;:0,&quot;rounded&quot;:0};" vertex="1" parent="1">
          <mxGeometry x="550" y="88" width="100" height="362" as="geometry" />
        </mxCell>
        <mxCell id="k7VXEWRvtEJYzQEgH_qj-4" value="" style="html=1;points=[];perimeter=orthogonalPerimeter;outlineConnect=0;targetShapes=umlLifeline;portConstraint=eastwest;newEdgeStyle={&quot;edgeStyle&quot;:&quot;elbowEdgeStyle&quot;,&quot;elbow&quot;:&quot;vertical&quot;,&quot;curved&quot;:0,&quot;rounded&quot;:0};" vertex="1" parent="k7VXEWRvtEJYzQEgH_qj-3">
          <mxGeometry x="45" y="80" width="10" height="260" as="geometry" />
        </mxCell>
        <mxCell id="k7VXEWRvtEJYzQEgH_qj-5" value="User" style="shape=umlActor;verticalLabelPosition=bottom;verticalAlign=top;html=1;outlineConnect=0;" vertex="1" parent="1">
          <mxGeometry x="335" y="69" width="20" height="50" as="geometry" />
        </mxCell>
        <mxCell id="k7VXEWRvtEJYzQEgH_qj-6" value="" style="html=1;points=[];perimeter=orthogonalPerimeter;outlineConnect=0;targetShapes=umlLifeline;portConstraint=eastwest;newEdgeStyle={&quot;edgeStyle&quot;:&quot;elbowEdgeStyle&quot;,&quot;elbow&quot;:&quot;vertical&quot;,&quot;curved&quot;:0,&quot;rounded&quot;:0};" vertex="1" parent="1">
          <mxGeometry x="340" y="171" width="10" height="259" as="geometry" />
        </mxCell>
        <mxCell id="k7VXEWRvtEJYzQEgH_qj-7" value="" style="endArrow=classic;html=1;rounded=0;" edge="1" parent="1" target="k7VXEWRvtEJYzQEgH_qj-4">
          <mxGeometry width="50" height="50" relative="1" as="geometry">
            <mxPoint x="350" y="210" as="sourcePoint" />
            <mxPoint x="510" y="210" as="targetPoint" />
          </mxGeometry>
        </mxCell>
        <mxCell id="k7VXEWRvtEJYzQEgH_qj-8" value="" style="html=1;labelBackgroundColor=#ffffff;startArrow=none;startFill=0;startSize=6;endArrow=classic;endFill=1;endSize=6;jettySize=auto;orthogonalLoop=1;strokeWidth=1;dashed=1;fontSize=14;rounded=0;" edge="1" parent="1">
          <mxGeometry width="60" height="60" relative="1" as="geometry">
            <mxPoint x="595" y="256" as="sourcePoint" />
            <mxPoint x="350" y="256" as="targetPoint" />
          </mxGeometry>
        </mxCell>
        <mxCell id="k7VXEWRvtEJYzQEgH_qj-9" value="ManageCart(add_items, remove_items)" style="text;strokeColor=none;align=center;fillColor=none;html=1;verticalAlign=middle;whiteSpace=wrap;rounded=0;" vertex="1" parent="1">
          <mxGeometry x="354" y="178" width="240" height="30" as="geometry" />
        </mxCell>
        <mxCell id="k7VXEWRvtEJYzQEgH_qj-10" value="Cart is Empty" style="text;strokeColor=none;align=center;fillColor=none;html=1;verticalAlign=middle;whiteSpace=wrap;rounded=0;" vertex="1" parent="1">
          <mxGeometry x="396" y="228.5" width="150" height="30" as="geometry" />
        </mxCell>
        <mxCell id="k7VXEWRvtEJYzQEgH_qj-11" value="" style="endArrow=none;dashed=1;html=1;rounded=0;exitX=-0.003;exitY=0.634;exitDx=0;exitDy=0;exitPerimeter=0;" edge="1" parent="1">
          <mxGeometry width="50" height="50" relative="1" as="geometry">
            <mxPoint x="208.68000000000006" y="297.4200000000001" as="sourcePoint" />
            <mxPoint x="650" y="294" as="targetPoint" />
          </mxGeometry>
        </mxCell>
        <mxCell id="k7VXEWRvtEJYzQEgH_qj-12" value="" style="endArrow=classic;html=1;rounded=0;" edge="1" parent="1">
          <mxGeometry width="50" height="50" relative="1" as="geometry">
            <mxPoint x="1320" y="700" as="sourcePoint" />
            <mxPoint x="1565" y="700" as="targetPoint" />
          </mxGeometry>
        </mxCell>
        <mxCell id="k7VXEWRvtEJYzQEgH_qj-13" value="" style="verticalLabelPosition=bottom;verticalAlign=top;html=1;shape=card;whiteSpace=wrap;size=20;arcSize=12;rotation=-180;" vertex="1" parent="1">
          <mxGeometry x="210" y="224" width="80" height="30" as="geometry" />
        </mxCell>
        <mxCell id="k7VXEWRvtEJYzQEgH_qj-14" value="&lt;b&gt;ALT&lt;/b&gt;" style="text;strokeColor=none;align=center;fillColor=none;html=1;verticalAlign=middle;whiteSpace=wrap;rounded=0;" vertex="1" parent="1">
          <mxGeometry x="210" y="224" width="60" height="30" as="geometry" />
        </mxCell>
        <mxCell id="k7VXEWRvtEJYzQEgH_qj-15" value="CartEmpty" style="text;strokeColor=none;align=center;fillColor=none;html=1;verticalAlign=middle;whiteSpace=wrap;rounded=0;" vertex="1" parent="1">
          <mxGeometry x="218" y="255" width="108" height="30" as="geometry" />
        </mxCell>
        <mxCell id="k7VXEWRvtEJYzQEgH_qj-16" value="" style="html=1;labelBackgroundColor=#ffffff;startArrow=none;startFill=0;startSize=6;endArrow=classic;endFill=1;endSize=6;jettySize=auto;orthogonalLoop=1;strokeWidth=1;dashed=1;fontSize=14;rounded=0;" edge="1" parent="1">
          <mxGeometry width="60" height="60" relative="1" as="geometry">
            <mxPoint x="593.5" y="409.5" as="sourcePoint" />
            <mxPoint x="348.5" y="409.5" as="targetPoint" />
          </mxGeometry>
        </mxCell>
        <mxCell id="k7VXEWRvtEJYzQEgH_qj-17" value="Items Displayed" style="text;strokeColor=none;align=center;fillColor=none;html=1;verticalAlign=middle;whiteSpace=wrap;rounded=0;" vertex="1" parent="1">
          <mxGeometry x="403.75" y="385" width="132.5" height="30" as="geometry" />
        </mxCell>
        <mxCell id="k7VXEWRvtEJYzQEgH_qj-18" value="CartNotEmpty" style="text;strokeColor=none;align=center;fillColor=none;html=1;verticalAlign=middle;whiteSpace=wrap;rounded=0;" vertex="1" parent="1">
          <mxGeometry x="218" y="309" width="108" height="30" as="geometry" />
        </mxCell>
        <mxCell id="k7VXEWRvtEJYzQEgH_qj-20" value="&lt;font style=&quot;font-size: 30px;&quot;&gt;X&lt;/font&gt;" style="text;strokeColor=none;align=center;fillColor=none;html=1;verticalAlign=middle;whiteSpace=wrap;rounded=0;" vertex="1" parent="1">
          <mxGeometry x="332" y="462.01" width="27" height="10" as="geometry" />
        </mxCell>
        <mxCell id="k7VXEWRvtEJYzQEgH_qj-21" value="&lt;font style=&quot;font-size: 30px;&quot;&gt;X&lt;/font&gt;" style="text;strokeColor=none;align=center;fillColor=none;html=1;verticalAlign=middle;whiteSpace=wrap;rounded=0;" vertex="1" parent="1">
          <mxGeometry x="587" y="453.28999999999996" width="27" height="10" as="geometry" />
        </mxCell>
        <mxCell id="k7VXEWRvtEJYzQEgH_qj-23" value="AddToCart(add_items)" style="text;strokeColor=none;align=center;fillColor=none;html=1;verticalAlign=middle;whiteSpace=wrap;rounded=0;" vertex="1" parent="1">
          <mxGeometry x="396" y="256.5" width="150" height="30" as="geometry" />
        </mxCell>
        <mxCell id="k7VXEWRvtEJYzQEgH_qj-24" value="" style="endArrow=classic;html=1;rounded=0;" edge="1" parent="1">
          <mxGeometry width="50" height="50" relative="1" as="geometry">
            <mxPoint x="350" y="284" as="sourcePoint" />
            <mxPoint x="595" y="284" as="targetPoint" />
          </mxGeometry>
        </mxCell>
        <mxCell id="k7VXEWRvtEJYzQEgH_qj-25" value="RemoveItems(item_id)" style="text;strokeColor=none;align=center;fillColor=none;html=1;verticalAlign=middle;whiteSpace=wrap;rounded=0;" vertex="1" parent="1">
          <mxGeometry x="396" y="291" width="150" height="30" as="geometry" />
        </mxCell>
        <mxCell id="k7VXEWRvtEJYzQEgH_qj-26" value="" style="endArrow=classic;html=1;rounded=0;" edge="1" parent="1">
          <mxGeometry width="50" height="50" relative="1" as="geometry">
            <mxPoint x="350" y="318.5" as="sourcePoint" />
            <mxPoint x="595" y="318.5" as="targetPoint" />
          </mxGeometry>
        </mxCell>
        <mxCell id="k7VXEWRvtEJYzQEgH_qj-27" value="" style="html=1;labelBackgroundColor=#ffffff;startArrow=none;startFill=0;startSize=6;endArrow=classic;endFill=1;endSize=6;jettySize=auto;orthogonalLoop=1;strokeWidth=1;dashed=1;fontSize=14;rounded=0;" edge="1" parent="1">
          <mxGeometry width="60" height="60" relative="1" as="geometry">
            <mxPoint x="592.5" y="345.5" as="sourcePoint" />
            <mxPoint x="347.5" y="345.5" as="targetPoint" />
          </mxGeometry>
        </mxCell>
        <mxCell id="k7VXEWRvtEJYzQEgH_qj-28" value="Cart Item Removed" style="text;strokeColor=none;align=center;fillColor=none;html=1;verticalAlign=middle;whiteSpace=wrap;rounded=0;" vertex="1" parent="1">
          <mxGeometry x="396" y="321" width="150" height="30" as="geometry" />
        </mxCell>
        <mxCell id="k7VXEWRvtEJYzQEgH_qj-29" value="ViewCartItems(items)" style="text;strokeColor=none;align=center;fillColor=none;html=1;verticalAlign=middle;whiteSpace=wrap;rounded=0;" vertex="1" parent="1">
          <mxGeometry x="395" y="360" width="150" height="30" as="geometry" />
        </mxCell>
        <mxCell id="k7VXEWRvtEJYzQEgH_qj-30" value="" style="endArrow=classic;html=1;rounded=0;" edge="1" parent="1">
          <mxGeometry width="50" height="50" relative="1" as="geometry">
            <mxPoint x="349" y="387.5" as="sourcePoint" />
            <mxPoint x="594" y="387.5" as="targetPoint" />
          </mxGeometry>
        </mxCell>
      </root>
    </mxGraphModel>
  </diagram>
</mxfile>
